<?xml version="1.0" encoding="utf-8"?>
<!-- Generator: Adobe Illustrator 28.3.0, SVG Export Plug-In . SVG Version: 6.00 Build 0)  -->
<svg version="1.1" xmlns="http://www.w3.org/2000/svg" xmlns:xlink="http://www.w3.org/1999/xlink" x="0px" y="0px"
	 viewBox="0 0 159.7 67" style="enable-background:new 0 0 159.7 67;" xml:space="preserve">
<g id="Layer_1">
</g>
<g id="Layer_2">
	<g id="eDpdht.tif">
		
			<image style="overflow:visible;" width="408" height="324" id="Layer_0" xlink:href="64C8AF748C81E15D.png"  transform="matrix(1.437581e-02 0.1044 -0.1044 1.437581e-02 108.9073 -88.8298)">
		</image>
	</g>
	<g>
		<path d="M2.2,29.8l3.9,0.1V5.5L2.2,5.6V3.1h17c6.3,0,10.5,2.1,10.5,8.9c0,7-4.2,9.1-10.5,9.1h-4.8v8.7l6.3-0.1v2.3H2.2V29.8z
			 M17,18.8c3.2,0,4.3-1.4,4.3-6.4c0-5.5-1.1-6.8-4.3-6.8h-2.6v13.3H17z"/>
		<path d="M44.9,29.3c-2.2,2-4.6,3.2-8.1,3.2c-3.3,0-6.2-1.6-6.2-5.5c0-8.3,13.7-2.9,13.7-9.4v-1c0-2.2-0.7-3.6-2.6-3.6
			c-2.1,0-2.8,1.2-2.8,5.4h-6.5c0-5,3-7.5,10.3-7.5c6.6,0,8.8,2.5,8.8,6.4v11c0,1.6,1.1,2.2,3,1.7v2.1
			C49.2,33.1,45.7,32.2,44.9,29.3z M44.4,25.5V21c-2.2,2.4-6.6,1.2-6.6,5.2c0,2.2,1,3.5,2.9,3.5C42.9,29.8,44.4,28.3,44.4,25.5z"/>
		<path d="M60.7,29.4l0.3,2.7h-5v-7H61c0.4,3.9,2.2,5.3,6.2,5.3c2.7,0,3.7-1.4,3.7-3.2c0-4.7-14.5-0.1-14.5-9.8
			c0-4.1,2.8-6.6,7.5-6.6c2.8,0,4.9,0.9,6.1,2.8l-0.3-2.4h5v6.2h-5.1c-0.4-3.5-2-4.6-5-4.6c-1.9,0-3.1,0.9-3.1,2.8
			c0,4.6,14.5,0.3,14.5,9.9c0,4-3.1,6.8-8.2,6.8C64.6,32.5,62.1,31.6,60.7,29.4z"/>
		<path d="M89,32.5c-5.1,0-7.8-2.6-7.8-6.7V13.5h-3.7v-2.2h3.9l1.2-5.2h5.8v5.2h6.5v2.2h-6.5v12.8c0,2.5,0.5,3.7,2,3.7
			c1.7,0,2.3-1.4,2.2-5.9h4.1C97,29.3,95.1,32.5,89,32.5z"/>
		<path d="M112.5,29.3c-2.2,2-4.6,3.2-8.1,3.2c-3.3,0-6.2-1.6-6.2-5.5c0-8.3,13.7-2.9,13.7-9.4v-1c0-2.2-0.7-3.6-2.6-3.6
			c-2.1,0-2.8,1.2-2.8,5.4H100c0-5,3-7.5,10.3-7.5c6.6,0,8.8,2.5,8.8,6.4v11c0,1.6,1.1,2.2,3,1.7v2.1
			C116.8,33.1,113.3,32.2,112.5,29.3z M112,25.5V21c-2.2,2.4-6.6,1.2-6.6,5.2c0,2.2,1,3.5,2.9,3.5C110.6,29.8,112,28.3,112,25.5z"/>
		<path d="M2.2,63.5v-2.3l3.9,0.1V36.8L2.2,37v-2.4h16.2V37l-4-0.1v9.7h11.7v-9.7L22.1,37v-2.4h16.2V37l-3.9-0.1v24.4l3.9-0.1v2.3
			H22.1v-2.3l4.1,0.1V48.9H14.4v12.3l4-0.1v2.3H2.2z"/>
		<path d="M40,53.2c0-8.7,5-10.9,11.7-10.9c6.5,0,11.5,2.1,11.5,10.4c0,8.7-4.5,11.1-11.7,11.1C44.4,63.9,40,61.6,40,53.2z
			 M55.9,53.1c0-7.2-1.2-8.8-4.4-8.8c-3,0-4.2,1.5-4.2,8.4c0,7.2,1.2,9.1,4.4,9.1C54.8,61.8,55.9,60,55.9,53.1z"/>
		<path d="M67.8,57.3V44.8l-3.2,0.1v-2.2h10.3V56c0,3.1,0.7,4.4,2.9,4.4c2.7,0,4.2-2,4.2-4.8V44.8l-4.3,0.1v-2.2h11.5v18.8l3.2-0.1
			v2.1H81.9l0.2-3.1c-2.5,2.2-5,3.5-8.1,3.5C69.2,63.9,67.8,61.1,67.8,57.3z"/>
		<path d="M98.5,60.7l0.3,2.7h-5v-7h5.1c0.4,3.9,2.2,5.3,6.2,5.3c2.7,0,3.7-1.4,3.7-3.2c0-4.7-14.5-0.1-14.5-9.8
			c0-4.1,2.8-6.6,7.5-6.6c2.8,0,4.9,0.9,6.1,2.8l-0.3-2.4h5v6.2h-5.1c-0.4-3.5-2-4.6-5-4.6c-1.9,0-3.1,0.9-3.1,2.8
			c0,4.6,14.5,0.3,14.5,9.9c0,4-3.1,6.8-8.2,6.8C102.4,63.9,100,62.9,98.5,60.7z"/>
		<path d="M127.4,63.9c-6.8,0-11.1-2.2-11.1-10.8c0-9.5,5.7-10.8,10.9-10.8c6.9,0,10.3,2.7,9.9,10.7h-13.4c0,7.7,1.4,8.8,4.7,8.8
			c3.4-0.1,4.3-2.2,4.3-6.3h5C137.7,60.5,134.1,63.9,127.4,63.9z M123.7,51h5.9c0.2-4.2,0-6.7-2.6-6.7
			C124.6,44.3,123.8,45.2,123.7,51z"/>
	</g>
	<g>
		<g>
			<path d="M120.5,36.9c-1.1,0.4-2.5,0.5-3,1.7c-0.5,1.2,0.3,2,1.4,2.2c1.5,0.4,3.1,0.6,4.6,0.6c1.6,0,3.1-0.2,4.7-0.4
				c2.9-0.3,5.9,0,8.1,2.2c2.1,2,2.3,4.9,3.4,7.5c1.1,2.7,3.4,4.7,6.3,5.2c0.2,0,0.6-0.1,0.6-0.3c0.1-0.6,0.2-1.2,0.3-1.8
				c-0.3,0-0.6,0.1-0.9,0.1c0.5,1,2.1,1.1,2.8,0.3c0.9-1,0.3-2.5-0.7-3.1c-0.1,0.3-0.3,0.6-0.4,0.9c1.3,0.4,3.1,0.3,3.7-1.1
				c0.4-1.1-0.2-2.4-1.4-2.5c-0.5,0-0.6,0.7-0.3,0.9c1,0.7,2.2,0,2.6-1c0.5-1.3-0.4-2.6-1.2-3.6c-0.2,0.2-0.5,0.5-0.7,0.7
				c0.9,0.7,2,0.4,2.7-0.4c0.9-1.2,0.2-2.8-0.4-3.9c-0.2,0.2-0.5,0.5-0.7,0.7c1,0.5,2.5,0.7,3.1-0.5c0.5-0.8,0.1-2.1-0.9-2.3
				c0,0.3-0.1,0.7-0.1,1c1.4,0,3.3-0.1,3.9-1.7c0.5-1.3-0.5-2.5-1.6-3.1c-1.3-0.7-2.7-1-4.2-1.3c-1.2-0.2-2.4-0.3-3.6-0.2
				c-1.7,0.1-3.4,0.2-5,0.4c-1.2,0.1-2.3-0.1-3.5-0.4c-0.6-0.1-1.1-0.3-1.6-0.5c-0.5-0.2-1-0.5-1.4-0.7c-1.3-0.7-2.7-1.3-3.8-2.4
				c-1.4-1.4-1.8-3.4-2.9-5.1c-0.9-1.4-2.6-2.5-4.3-2c-0.3,0.1-0.4,0.4-0.3,0.6c0.2,0.9,0.5,1.8,0.7,2.6c0.3-0.2,0.6-0.3,0.8-0.5
				c-0.9-0.7-2.5-0.8-3.1,0.3c-0.6,1,0,2.4,1.1,2.6c0-0.3,0.1-0.7,0.1-1c-0.8,0-1.6,0-2.3,0c-0.2,0-0.4,0.2-0.5,0.4
				c-0.3,1.1,0,2.2,0.7,3.1c0.2-0.2,0.5-0.5,0.7-0.7c-0.9-0.8-2.3-0.6-2.9,0.4c-0.7,1.1,0,2.6,1.1,3.1c0.6,0.3,1.1-0.5,0.5-0.9
				c-1.1-0.6-2.6-0.2-3.1,0.9c-0.6,1.2,0.2,2.6,1.4,3c0.6,0.2,0.9-0.8,0.3-1c-0.7-0.2-1.1-1-0.7-1.7c0.3-0.6,1.1-0.7,1.7-0.4
				c0.2-0.3,0.3-0.6,0.5-0.9c-0.6-0.3-1.1-0.9-0.9-1.6c0.2-0.5,1-0.8,1.4-0.4c0.5,0.4,1.1-0.2,0.7-0.7c-0.5-0.6-0.7-1.4-0.5-2.1
				c-0.2,0.1-0.3,0.2-0.5,0.4c0.8,0,1.6,0,2.3,0c0.5,0,0.7-0.9,0.1-1c-0.5-0.1-0.8-0.7-0.5-1.1c0.3-0.5,1.2-0.5,1.6-0.1
				c0.4,0.3,1,0,0.8-0.5c-0.2-0.9-0.5-1.8-0.7-2.6c-0.1,0.2-0.2,0.4-0.3,0.6c1.7-0.5,3,1,3.7,2.4c0.7,1.3,1.1,2.8,2.1,4
				c0.9,1,2,1.7,3.2,2.3c0.9,0.5,1.9,1.1,2.9,1.5c1,0.4,2.1,0.6,3.2,0.8c1.1,0.2,2.1,0.1,3.2,0c2.6-0.2,5.1-0.5,7.7,0
				c1.3,0.3,2.9,0.6,4,1.4c0.6,0.5,1,1.4,0.4,2c-0.7,0.7-1.8,0.7-2.7,0.6c-0.6,0-0.7,0.9-0.1,1c0.4,0.1,0.5,0.6,0.2,0.9
				c-0.4,0.5-1.2,0.2-1.6,0c-0.5-0.3-0.9,0.2-0.7,0.7c0.4,0.7,0.9,1.7,0.6,2.6c-0.2,0.4-0.9,1-1.3,0.6c-0.5-0.4-1.1,0.2-0.7,0.7
				c0.5,0.6,1.1,1.3,1.1,2.1c0,0.6-0.7,1.3-1.3,0.9c-0.1,0.3-0.2,0.6-0.3,0.9c0.6,0.1,0.7,1,0.4,1.4c-0.5,0.7-1.7,0.6-2.4,0.3
				c-0.5-0.2-0.9,0.6-0.4,0.9c0.5,0.3,0.9,1,0.5,1.5c-0.3,0.4-1,0.3-1.3-0.1c-0.2-0.4-0.8-0.3-0.9,0.1c-0.1,0.6-0.2,1.2-0.3,1.8
				c0.2-0.1,0.4-0.2,0.6-0.3c-2.4-0.4-4.4-1.9-5.4-4.1c-1.1-2.3-1.2-4.9-2.7-7c-1.3-1.9-3.4-3.2-5.7-3.6c-2.8-0.5-5.6,0.2-8.4,0.3
				c-1.6,0-3.2-0.1-4.7-0.5c-0.3-0.1-0.9-0.1-0.9-0.5c0-0.3,0.2-0.6,0.4-0.8c0.5-0.5,1.5-0.5,2.1-0.8
				C121.4,37.7,121.1,36.7,120.5,36.9L120.5,36.9z"/>
		</g>
	</g>
	<g>
		<g>
			<path d="M129.7,37.8c4.5,0.7,8.8,2.6,12.4,5.5c0.5,0.4,1.2-0.3,0.7-0.7c-3.7-3-8.1-5-12.8-5.8C129.3,36.7,129,37.7,129.7,37.8
				L129.7,37.8z"/>
		</g>
	</g>
	<g>
		<g>
			<path d="M131.6,33.7c0.5,2.3,2.9,3.3,4.9,4.1c2.4,0.9,4.9,1.8,7.5,1.3c0.6-0.1,0.4-1.1-0.3-1c-2.3,0.5-4.5-0.3-6.6-1.1
				c-1.8-0.7-4.1-1.5-4.6-3.6C132.4,32.8,131.4,33.1,131.6,33.7L131.6,33.7z"/>
		</g>
	</g>
</g>
</svg>
