<?xml version="1.0" encoding="UTF-8"?>
<svg id="Layer_1" xmlns="http://www.w3.org/2000/svg" version="1.1" viewBox="0 0 343.1 212.7">
  <!-- Generator: Adobe Illustrator 29.5.1, SVG Export Plug-In . SVG Version: 2.1.0 Build 141)  -->
  <defs>
    <style>
      .st0 {
        isolation: isolate;
      }

      .st1 {
        fill: #526452;
      }
    </style>
  </defs>
  <g class="st0">
    <g>
      <path class="st1" d="M43.8,96c1.1,9.8,4.5,37.9,4.5,37.9-3,.5-19.8,4-19.8,4,0-4.7.4-37.5.4-37.5-3.8.3-9.6.6-15.7.9,0,0,0-23.2.4-26.7l48.2,2.8.4,15.7c-2.2.4-12.6,2.1-18.5,3Z"/>
      <path class="st1" d="M93.6,136.1c0-2.6,0-15.6,0-18.9h-7.6v20.9c-8.4-1.1-11.9-1.9-16.8-2.8l1.5-55.3c3.1-.5,13.2-2,17.7-3.8-.3,3.3-1.5,32.6-1.5,32.6,0,0,15-.5,21.6-.6,0,0,.7,24.1.9,28.8-4.2-.2-11.1-.6-15.7-1Z"/>
      <path class="st1" d="M140.3,110.5c-2.4-.4-3.6-1.3-6-1.3s-3,.3-4.7.7v26.5c-.3,0-7.5,0-14.6.2l.3-38.9c5.1-2,9.7-3.2,13.5-4,.5,3.1.6,4.9,1.3,6.9,1.3-1.2,5-5.2,8.7-5.2s2.1,0,3.1,1.1c-.6,4.8-1.1,9.3-1.6,14Z"/>
      <path class="st1" d="M165.9,137.3c-7,0-20.6-5.7-20.6-25.7s2.6-24.3,18.7-24.3,17.2,5.4,20.1,11.9c-2.2,1-20.4,12.3-24.5,14.6,0,2.1,1.3,7.5,4,7.5,5.9,0,11.8-7.5,15.4-11,2.8,3.4,7.2,9,9.5,12-2.7,4-11,15-22.6,15ZM163.3,100.6c-3.9.3-4.8,6.8-4.7,8.9,4.5-2.4,8.6-5.4,10-6.5-.5-1.4-3.1-2.6-5.3-2.4Z"/>
      <path class="st1" d="M231.8,137.1s-7.5.3-9.9,0c0-3.1.2-5.7,0-7.9-2.9,6.5-9.6,8.2-17.1,8.2s-13.4-7-13.2-18.3c.2-13.4,8.5-23.9,18.9-24.4,4.6-.2,5.9.2,9.5.7.3-1.2.5-1.8.6-2.5,1.9-.3,14.3-.8,14.3-.8,0,0-3.1,38.5-3.2,45.1ZM214.4,106.8c-3.6,0-5.7,6.8-5.6,8.6.4,4.7,2.6,7.6,6,7.6s6.6-4,6.7-9.3c.2-4.1-3.2-6.9-7.2-6.9Z"/>
      <path class="st1" d="M281.7,110.3c-.5,10.2-1.5,21.6-1.2,26.1-3.1.7-5.9,1-10.2,1.3-.2-2.7-.3-4.3-.2-6.6-1.5,2.4-8.4,6-13.5,6-10.5,0-16.1-6.9-16.2-17.4,0-12.3,6.2-25.6,21.1-25.6s5.1.5,7.3.7c.2-2.7,0-10.1.2-14.4,4-.5,9.8-1.2,14.5-1.2s-1.2,18.9-1.8,31ZM262.4,106.6c-2.7,0-5.2,6.6-5.2,8.4,0,3.7,3.4,7.5,6.1,7.6,2.2.2,6.8-4.1,6.6-9.6-.2-4.1-3.2-6.5-7.5-6.5Z"/>
      <path class="st1" d="M324,102.2c-2.8-3.7-4-4.9-7.1-4.9s-4.6.7-4.6,2.4c0,7.6,16.2,6.5,16.2,19.9s-2.2,17.7-20.6,17.7-18.6-10.3-18.6-10.3c1.8-2.7,5.7-7.7,8.8-11.9,3.6,3.2,5.3,5.3,8.6,5.3s3.7-1.1,3.9-3.9c.5-7-14.5-6.8-14.5-19s9-11.6,15.7-12c2.8-.2,15.5,2.4,18.1,7.4-2.1,3.5-5.2,8.4-6,9.4Z"/>
    </g>
  </g>
</svg>